<?xml version="1.0" encoding="iso-8859-1"?>
<!-- Generator: Adobe Illustrator 17.1.0, SVG Export Plug-In . SVG Version: 6.00 Build 0)  -->
<!DOCTYPE svg PUBLIC "-//W3C//DTD SVG 1.1//EN" "http://www.w3.org/Graphics/SVG/1.1/DTD/svg11.dtd">
<svg version="1.1" id="Layer_1" xmlns="http://www.w3.org/2000/svg" xmlns:xlink="http://www.w3.org/1999/xlink" x="0px" y="0px"
	 viewBox="0 0 15.324 15.322" style="enable-background:new 0 0 15.324 15.322;" xml:space="preserve">
<path d="M13.08,2.243c-2.992-2.99-7.844-2.99-10.836,0c-2.992,2.99-2.992,7.844,0,10.836c2.992,2.992,7.846,2.99,10.836,0
	C16.072,10.088,16.072,5.233,13.08,2.243z M7.539,1.323c0.809,0,1.467,0.658,1.467,1.469c0,0.816-0.658,1.481-1.467,1.481
	c-0.816,0-1.483-0.664-1.483-1.481C6.057,1.967,6.707,1.323,7.539,1.323z M9.896,12.114c0,0.309-0.148,0.459-0.457,0.459H5.654
	c-0.309,0-0.459-0.15-0.459-0.459v-0.965c0-0.309,0.15-0.457,0.459-0.457h0.699V6.62H5.639c-0.309,0-0.457-0.15-0.457-0.459V5.196
	c0-0.309,0.148-0.457,0.457-0.457h2.643c0.308,0,0.457,0.148,0.457,0.457v5.496h0.701c0.309,0,0.457,0.148,0.457,0.457V12.114z"/>
</svg>
